<svg xmlns="http://www.w3.org/2000/svg" viewBox="0 0 240 240"><rect width="240" height="240" rx="28" fill="#0f172a"/><circle cx="120" cy="98" r="46" fill="#a855f7"/><circle cx="104" cy="92" r="6" fill="#111827"/><circle cx="136" cy="92" r="6" fill="#111827"/><g stroke="#a855f7" stroke-width="14" stroke-linecap="round" fill="none"><path d="M72 132c-14 16-12 38 2 52"/><path d="M92 136c-10 18-8 38 6 52"/><path d="M112 142c-4 16-2 32 8 48"/><path d="M128 142c4 16 2 32-8 48"/><path d="M148 136c10 18 8 38-6 52"/><path d="M168 132c14 16 12 38-2 52"/></g></svg>
